<?xml version="1.0" encoding="utf-8"?>
<!-- Generator: Adobe Illustrator 18.1.1, SVG Export Plug-In . SVG Version: 6.00 Build 0)  -->
<svg version="1.1" id="Layer_1" xmlns="http://www.w3.org/2000/svg" xmlns:xlink="http://www.w3.org/1999/xlink" x="0px" y="0px"
	 viewBox="0 0 512 512" enable-background="new 0 0 512 512" xml:space="preserve">
<path fill="#333333" d="M101.8,505.2c-2.6-3.1-6.1-5.7-7.5-9.3c-19.1-49.1-37.9-98.3-56.8-147.5c-4.2-10.9-0.2-16.9,11.6-16.4
	c5.9,0.2,8.7-1.3,11.3-7.1c8.2-19,23.1-30.4,43.5-34.4c1.1-0.2,2.3-0.4,3.4-0.7c0.3-0.1,0.6-0.2,1.5-0.5c0.1-1.5,0.2-3.3,0.2-5
	c0-29.8-0.1-59.6,0.1-89.3c0-4.1-1.2-5.8-5-7c-15.6-5.1-31.1-10.6-46.7-16c-7.2-2.5-9.1-5-9.1-12.4c0-16.3,0-32.6,0-48.9
	c0-8.4,3.5-11.8,11.8-11.8c33.4,0,66.9,0,100.3,0c8,0,11,2.8,11.8,10.9c1.9,19.5,17.2,32.8,37.4,32.5c19.7-0.3,34.6-14.1,36.1-33.4
	c0.5-6.7,3.9-9.9,10.6-9.9c34.3,0,68.5,0,102.8,0c6.5,0,10.2,3.6,10.3,10.2c0.1,17.3,0.1,34.6,0,51.9c0,5.8-2.2,8.6-7.9,10.6
	c-16.3,5.6-32.7,11.3-49,16.8c-2.6,0.9-3.7,2-3.7,4.9c0.1,21.3,0.1,42.6,0.1,63.9c0,1,0.2,1.9,0.3,2.5c8,0.6,15.8,0.6,23.4,1.9
	c14.4,2.3,26.6,9.2,36.8,19.6c2.4,2.5,4.4,3.4,8.1,2.7c32.8-6.4,64.6,11.8,75.8,43.3c1.3,3.5,2.7,5.1,6.6,4.8
	c4.3-0.4,8.7,0.1,13-0.1c5.2-0.3,9.5,1.3,12.5,5.7c0,3,0,6,0,9c-0.7,1.4-1.6,2.8-2.2,4.3c-18.6,48.5-37.3,96.9-55.8,145.5
	c-1.6,4.1-3.8,7.3-7.9,9C313.5,505.2,207.7,505.2,101.8,505.2z M461.7,351.8c-134.2,0-267.8,0-401.8,0c0.4,1.4,0.6,2.3,1,3.3
	C77,396.9,93.1,438.7,109,480.6c1.5,3.9,3.5,5,7.6,5c96.1-0.1,192.3-0.1,288.4,0c4.2,0,6-1.4,7.5-5.2c12.6-33.2,25.3-66.4,38-99.5
	C454.2,371.3,457.9,361.8,461.7,351.8z M289.5,296.7c0-1.8,0-3.7,0-5.7c0-35.4,0-70.9,0-106.3c0-7.1,1.7-9.5,8.4-11.7
	c16-5.5,32-11.1,48.1-16.5c3.1-1,4.1-2.5,4.1-5.7c-0.2-9.5-0.2-19,0-28.5c0.1-3.2-1-4.3-4.3-4.3c-25.8,0.1-51.6,0.1-77.4,0
	c-3,0-4.2,1-5.1,4c-6.9,23.8-28.4,39.6-53.8,39.8c-25.6,0.2-47.4-15.3-54.7-39.2c-1.1-3.5-2.5-4.6-6.2-4.6
	c-25.3,0.2-50.6,0.1-75.9,0.1c-1.6,0-3.1,0.3-5,0.4c0,11,0.1,21.5-0.1,32c-0.1,3.4,1,4.9,4.3,6c15.9,5.3,31.7,10.9,47.6,16.3
	c7.3,2.5,9.1,4.9,9.1,12.8c0,29,0,57.9,0,86.9c0,1.2,0.1,2.5,0.2,4.3c1.4-0.9,2.2-1.4,2.9-1.9c30.9-22.3,67.7-19.3,94.8,7.6
	c1.2,1.2,3.8,1.8,5.5,1.5c11.2-2,22.3-2.3,33,1.6C273.3,288.6,281,292.8,289.5,296.7z M78.4,332c71.1,0,141.4,0,212.1,0
	c-0.5-1.3-0.7-2.1-1-2.8c-9.8-21.8-35-32.6-58.5-25.1c-7.9,2.5-10,1.7-15.3-4.9c-2.8-3.5-5.9-6.8-9.5-9.4
	c-25.5-18.5-57.5-12.5-75.2,13.8c-2.6,3.8-5.7,6.5-10.7,5.6c-11.5-2.1-21.8,1-30.9,7.9C84.7,320.7,80.4,325.2,78.4,332z
	 M308.5,280.3c0,3.5,0,6.6,0,9.8c0,11-0.1,21.9,0,32.9c0.1,8.6,0.9,9.4,9.2,9.4c36.9,0,73.8,0,110.7,0c1.9,0,3.8-0.2,6.4-0.3
	c-1.1-2.4-1.8-4.1-2.7-5.7c-11.5-20.6-34.7-29.5-57.7-22.1c-7.3,2.3-9.4,1.6-14.1-4.4c-2.5-3.1-5.2-6.1-8.2-8.7
	C339.5,280.7,325,277.4,308.5,280.3z"/>
<path fill="#333333" d="M435.9,236.6c-22.1,0.1-39.7-17.4-39.7-39.5c0-21.9,17.4-39.4,39.2-39.4c22.1-0.1,39.7,17.5,39.8,39.5
	C475.2,218.9,457.7,236.6,435.9,236.6z M462.6,197.8c0.1-14.9-11.1-26.3-26-26.4c-14.9-0.1-26.3,11-26.5,25.9
	c-0.2,15.1,11.2,26.6,26.3,26.6C451.3,224,462.6,212.7,462.6,197.8z"/>
<path fill="#333333" d="M158.7,52.1c0,15.8-12.9,28.5-28.6,28.4c-15.9-0.2-28.4-12.9-28.3-28.7c0.1-15.8,12.9-28.5,28.7-28.4
	C146.2,23.5,158.8,36.2,158.7,52.1z M130.3,66.2c8,0,13.8-5.8,13.8-13.8c0-8-5.8-13.8-13.8-13.8c-8,0-13.8,5.8-13.8,13.8
	C116.5,60.4,122.3,66.2,130.3,66.2z"/>
<path fill="#77C20D" d="M78.4,332c1.9-6.8,6.3-11.2,11.1-14.9c9.1-6.9,19.4-10,30.9-7.9c5,0.9,8.1-1.8,10.7-5.6
	c17.6-26.3,49.6-32.3,75.2-13.8c3.6,2.6,6.7,5.9,9.5,9.4c5.3,6.5,7.3,7.4,15.3,4.9c23.5-7.5,48.7,3.3,58.5,25.1
	c0.3,0.7,0.5,1.5,1,2.8C219.8,332,149.5,332,78.4,332z"/>
<path fill="#77C20D" d="M308.5,280.3c16.5-2.9,31,0.4,43.6,11c3,2.5,5.7,5.6,8.2,8.7c4.7,5.9,6.8,6.7,14.1,4.4
	c23-7.4,46.1,1.5,57.7,22.1c0.9,1.6,1.5,3.2,2.7,5.7c-2.6,0.1-4.5,0.3-6.4,0.3c-36.9,0-73.8,0-110.7,0c-8.3,0-9.2-0.8-9.2-9.4
	c-0.1-11,0-21.9,0-32.9C308.5,287,308.5,283.8,308.5,280.3z"/>
<path fill="#77C20D" d="M462.6,197.8c-0.1,14.9-11.4,26.1-26.3,26.1c-15.1,0-26.4-11.5-26.3-26.6c0.2-14.9,11.6-26,26.5-25.9
	C451.5,171.6,462.7,182.9,462.6,197.8z"/>
<path fill="#77C20D" d="M130.3,66.2c-8,0-13.8-5.9-13.8-13.8c0-8,5.9-13.8,13.8-13.8c8,0,13.8,5.9,13.8,13.8
	C144.1,60.4,138.2,66.2,130.3,66.2z"/>
</svg>
